<svg width="413" height="274" viewBox="0 0 413 274" fill="none" xmlns="http://www.w3.org/2000/svg">
<path d="M72.176 157.64C68.7627 157.64 65.584 157.064 62.64 155.912C59.7387 154.717 57.2 153.075 55.024 150.984C52.848 148.893 51.1413 146.461 49.904 143.688C48.7093 140.872 48.112 137.843 48.112 134.6C48.112 131.315 48.7093 128.285 49.904 125.512C51.1413 122.696 52.848 120.243 55.024 118.152C57.2427 116.061 59.8027 114.44 62.704 113.288C65.648 112.093 68.8053 111.496 72.176 111.496C74.6507 111.496 77.0827 111.859 79.472 112.584C81.8613 113.309 84.0587 114.333 86.064 115.656C88.112 116.936 89.8187 118.472 91.184 120.264L83.76 127.56C82.1813 125.555 80.4107 124.061 78.448 123.08C76.528 122.099 74.4373 121.608 72.176 121.608C70.384 121.608 68.6987 121.949 67.12 122.632C65.584 123.272 64.24 124.168 63.088 125.32C61.936 126.472 61.04 127.837 60.4 129.416C59.76 130.995 59.44 132.723 59.44 134.6C59.44 136.435 59.76 138.141 60.4 139.72C61.0827 141.256 62 142.621 63.152 143.816C64.3467 144.968 65.7333 145.864 67.312 146.504C68.9333 147.144 70.6827 147.464 72.56 147.464C74.736 147.464 76.7413 146.995 78.576 146.056C80.4533 145.117 82.1387 143.731 83.632 141.896L90.864 149C89.4987 150.749 87.8133 152.285 85.808 153.608C83.8027 154.888 81.6267 155.891 79.28 156.616C76.9333 157.299 74.5653 157.64 72.176 157.64ZM112.662 157.64C109.035 157.64 105.451 156.979 101.91 155.656C98.3682 154.333 95.2108 152.499 92.4375 150.152L98.5815 142.152C101.312 144.371 103.83 145.971 106.134 146.952C108.438 147.891 110.891 148.36 113.494 148.36C115.2 148.36 116.651 148.189 117.846 147.848C119.04 147.507 119.958 147.016 120.598 146.376C121.238 145.693 121.558 144.904 121.558 144.008C121.558 142.771 121.088 141.811 120.15 141.128C119.211 140.445 117.611 139.912 115.35 139.528L105.494 137.8C101.867 137.16 99.0722 135.773 97.1095 133.64C95.1468 131.507 94.1655 128.797 94.1655 125.512C94.1655 122.611 94.8908 120.115 96.3415 118.024C97.8348 115.933 99.9468 114.333 102.678 113.224C105.451 112.115 108.736 111.56 112.534 111.56C115.862 111.56 119.211 112.136 122.582 113.288C125.952 114.397 128.875 115.955 131.35 117.96L125.526 126.088C120.918 122.547 116.331 120.776 111.766 120.776C110.272 120.776 108.971 120.947 107.862 121.288C106.795 121.587 105.963 122.035 105.366 122.632C104.811 123.187 104.534 123.869 104.534 124.68C104.534 125.789 104.939 126.643 105.75 127.24C106.603 127.837 107.968 128.307 109.846 128.648L119.126 130.184C123.435 130.867 126.699 132.296 128.918 134.472C131.179 136.648 132.31 139.464 132.31 142.92C132.31 145.949 131.52 148.573 129.942 150.792C128.363 152.968 126.102 154.653 123.158 155.848C120.214 157.043 116.715 157.64 112.662 157.64ZM131.367 157L148.328 133.896L132.136 112.2H145.256L154.856 125.704L164.456 112.2H177.064L161.128 133.896L178.408 157H165.288L154.6 142.024L143.976 157H131.367ZM206.308 157V121.928H191.652V112.2H231.972V121.928H217.316V157H206.308ZM245.534 157.64C242.078 157.64 238.942 156.872 236.126 155.336C233.352 153.757 231.155 151.645 229.534 149C227.912 146.355 227.102 143.389 227.102 140.104C227.102 136.819 227.87 133.853 229.406 131.208C230.984 128.563 233.118 126.472 235.806 124.936C238.494 123.357 241.48 122.568 244.766 122.568C248.094 122.568 251.038 123.379 253.598 125C256.158 126.579 258.163 128.755 259.614 131.528C261.107 134.301 261.854 137.48 261.854 141.064V143.624H237.726C238.195 144.691 238.814 145.629 239.582 146.44C240.392 147.251 241.352 147.891 242.462 148.36C243.571 148.787 244.766 149 246.046 149C247.454 149 248.734 148.787 249.886 148.36C251.038 147.891 252.019 147.251 252.83 146.44L259.678 152.52C257.544 154.312 255.347 155.613 253.086 156.424C250.867 157.235 248.35 157.64 245.534 157.64ZM237.534 136.392H251.678C251.336 135.283 250.803 134.344 250.078 133.576C249.395 132.765 248.584 132.147 247.646 131.72C246.707 131.251 245.683 131.016 244.574 131.016C243.422 131.016 242.376 131.229 241.438 131.656C240.499 132.083 239.688 132.701 239.006 133.512C238.366 134.28 237.875 135.24 237.534 136.392ZM283.397 157.64C280.026 157.64 276.975 156.872 274.245 155.336C271.557 153.8 269.423 151.709 267.845 149.064C266.266 146.376 265.477 143.389 265.477 140.104C265.477 136.776 266.266 133.789 267.845 131.144C269.423 128.499 271.557 126.408 274.245 124.872C276.975 123.293 280.026 122.504 283.397 122.504C286.17 122.504 288.815 123.059 291.333 124.168C293.85 125.235 295.983 126.771 297.733 128.776L291.397 135.368C290.202 134.003 288.986 133.021 287.749 132.424C286.511 131.784 285.146 131.464 283.653 131.464C282.159 131.464 280.815 131.848 279.621 132.616C278.426 133.341 277.487 134.365 276.805 135.688C276.122 136.968 275.781 138.44 275.781 140.104C275.781 141.725 276.122 143.197 276.805 144.52C277.53 145.8 278.511 146.824 279.749 147.592C280.986 148.317 282.373 148.68 283.909 148.68C285.317 148.68 286.618 148.381 287.813 147.784C289.007 147.187 290.159 146.269 291.269 145.032L297.413 151.432C295.706 153.395 293.615 154.931 291.141 156.04C288.666 157.107 286.085 157.64 283.397 157.64ZM301.513 157V112.2L311.881 109.96V125.448C314.441 123.485 317.47 122.504 320.969 122.504C323.614 122.504 325.939 123.08 327.945 124.232C329.993 125.384 331.593 126.984 332.745 129.032C333.897 131.08 334.472 133.448 334.472 136.136V157H324.105V137.544C324.105 135.667 323.55 134.173 322.441 133.064C321.331 131.955 319.838 131.4 317.961 131.4C316.638 131.4 315.465 131.635 314.441 132.104C313.459 132.573 312.606 133.235 311.881 134.088V157H301.513Z" fill="black"/>
<path d="M343 104L355.9 117.223" stroke="black" stroke-width="10" stroke-linecap="round" stroke-linejoin="round" stroke-dasharray="20 20"/>
<path d="M343.496 117.223L356.396 104" stroke="black" stroke-width="10" stroke-linecap="round" stroke-linejoin="round" stroke-dasharray="20 20"/>
<path d="M50 168L52.6991 180L337 168H50Z" fill="black" stroke="black"/>
</svg>
